<?xml version="1.0" standalone="no"?>
<!DOCTYPE svg PUBLIC "-//W3C//DTD SVG 20010904//EN"
 "http://www.w3.org/TR/2001/REC-SVG-20010904/DTD/svg10.dtd">
<svg version="1.0" xmlns="http://www.w3.org/2000/svg"
 width="200.000000pt" height="200.000000pt" viewBox="0 0 200.000000 200.000000"
 preserveAspectRatio="xMidYMid meet">
<metadata>
Created by potrace 1.11, written by Peter Selinger 2001-2013
</metadata>
<g transform="translate(0.000000,200.000000) scale(0.100000,-0.100000)"
fill="#000000" stroke="none">
<path d="M1070 1453 c-30 -8 -117 -34 -192 -59 -75 -24 -174 -53 -219 -64 -92
-22 -118 -42 -86 -67 17 -14 108 6 296 66 191 61 212 67 243 70 12 2 38 32 38
46 0 21 -21 23 -80 8z"/>
<path d="M100 1309 c0 -15 21 -44 58 -79 107 -104 215 -151 346 -151 124 0
141 4 385 82 84 28 183 56 219 63 87 19 203 18 279 -2 42 -11 66 -13 73 -6 17
17 -17 52 -63 65 -67 19 -68 19 -157 20 -93 0 -174 -19 -395 -91 -215 -69
-333 -85 -444 -59 -66 15 -160 65 -221 118 -74 64 -80 67 -80 40z"/>
<path d="M1085 1098 c-44 -10 -141 -39 -216 -63 -268 -86 -364 -99 -493 -63
-73 20 -93 15 -82 -20 11 -33 95 -56 206 -56 123 0 150 5 395 84 190 61 249
73 355 72 129 0 232 -43 339 -142 50 -46 61 -49 61 -18 0 26 -91 116 -156 154
-121 71 -258 89 -409 52z"/>
<path d="M1110 925 c-36 -7 -137 -36 -225 -65 -88 -29 -171 -54 -184 -56 -14
-3 -27 -7 -31 -9 -13 -8 -128 -19 -186 -18 -76 2 -173 34 -241 79 -48 31 -83
43 -83 28 0 -23 43 -68 94 -98 80 -48 155 -69 241 -70 120 -1 177 11 395 84
275 91 418 100 556 34 61 -29 83 -31 79 -6 -2 9 -4 20 -4 24 -1 11 -123 67
-166 76 -62 13 -173 12 -245 -3z"/>
<path d="M140 723 c0 -24 80 -95 150 -132 33 -18 88 -38 123 -45 109 -23 288
-2 308 36 19 34 -2 42 -73 28 -166 -32 -304 -5 -423 85 -64 48 -85 55 -85 28z"/>
<path d="M877 670 c-18 -15 -19 -20 -8 -34 7 -8 29 -18 48 -22 31 -6 53 -27
41 -39 -8 -9 -52 -9 -78 -1 -18 6 -22 5 -14 -3 29 -31 114 -16 114 20 0 13
-13 22 -47 32 -26 8 -49 19 -51 25 -5 17 39 31 66 21 13 -5 22 -5 22 1 0 6 -6
11 -12 11 -7 1 -23 3 -36 4 -13 1 -33 -6 -45 -15z"/>
<path d="M1062 678 c-21 -26 -73 -128 -65 -128 5 0 14 9 21 20 18 29 92 28
110 -1 7 -12 16 -18 19 -15 5 4 -64 136 -71 136 -2 0 -8 -6 -14 -12z m16 -76
c-40 -4 -43 1 -22 37 l18 31 17 -32 17 -33 -30 -3z"/>
<path d="M1180 620 c0 -45 4 -69 10 -65 12 8 11 123 -1 131 -5 3 -9 -27 -9
-66z"/>
<path d="M1250 621 c0 -64 2 -70 20 -68 20 1 29 17 10 17 -5 0 -10 24 -10 54
0 30 -4 58 -10 61 -6 4 -10 -20 -10 -64z"/>
<path d="M1389 683 c-4 -35 -5 -110 -1 -120 11 -32 19 -8 16 47 -1 33 2 60 7
60 5 0 9 5 9 10 0 11 -30 14 -31 3z"/>
<path d="M1430 680 c0 -5 5 -10 10 -10 6 0 10 5 10 10 0 6 -4 10 -10 10 -5 0
-10 -4 -10 -10z"/>
<path d="M1460 679 c0 -5 6 -9 14 -9 20 0 46 -28 46 -50 0 -29 -28 -50 -66
-50 -19 0 -34 -4 -34 -9 0 -11 63 -5 88 8 24 13 36 55 22 80 -11 21 -70 46
-70 30z"/>
<path d="M1598 674 c-15 -8 -29 -22 -33 -33 -20 -64 67 -111 133 -71 84 51
-11 151 -100 104z m110 -52 c3 -25 -2 -33 -25 -45 -35 -18 -89 -5 -98 23 -16
51 34 88 90 65 23 -9 31 -19 33 -43z"/>
<path d="M1778 659 c-34 -34 -34 -40 -4 -75 24 -28 68 -37 109 -21 19 7 24 57
6 57 -6 0 -9 -6 -6 -13 10 -27 -14 -42 -65 -38 -10 0 -25 12 -34 26 -15 23
-15 27 1 51 14 23 22 25 61 22 24 -2 44 0 44 4 0 9 -1 9 -50 13 -26 2 -41 -4
-62 -26z"/>
<path d="M1300 561 c0 -4 14 -7 30 -7 17 0 30 3 30 6 0 4 -13 7 -30 8 -16 0
-30 -3 -30 -7z"/>
</g>
</svg>
